# xmcd CD database file
#
# Track frame offsets:
#	180
#	21841
#	41690
#	64541
#	88323
#	104753
#	129980
#	145522
#	156650
#	173639
#	193459
#	215077
#
# Disc length: 3161 seconds
#
# Revision: 0
# Processed by: cddbd v1.5.2PL0 Copyright (c) Steve Scherf et al.
# Submitted via: CDex 1.70beta2
#
DISCID=b50c570c
DTITLE=Planet Blues - Groove Orbit
DYEAR=1999
DGENRE=Blues
TTITLE0=I Got A Warnin'
TTITLE1=Damn It's Good
TTITLE2=I Wish You Would
TTITLE3=Wiggin'
TTITLE4=Fiesta Blues
TTITLE5=Come Back Baby
TTITLE6=Bear Valley
TTITLE7=Common Ground
TTITLE8=Ain't That Peculiar
TTITLE9=Charity Begins At Home
TTITLE10=Pushed Your Luck Too Far
TTITLE11=Spider Legs
EXTD=YEAR: 1999
EXTT0=
EXTT1=
EXTT2=
EXTT3=
EXTT4=
EXTT5=
EXTT6=
EXTT7=
EXTT8=
EXTT9=
EXTT10=
EXTT11=
PLAYORDER=
